<svg width="16" height="16" viewBox="0 0 16 16" fill="none" xmlns="http://www.w3.org/2000/svg">
<path fill-rule="evenodd" clip-rule="evenodd" d="M7.98182 0.927808C8.10882 1.15315 8.0916 1.43208 7.93784 1.64009C7.28383 2.52489 6.96912 3.61504 7.05094 4.71227C7.13277 5.8095 7.60569 6.84091 8.3837 7.61892C9.16171 8.39693 10.1931 8.86986 11.2904 8.95168C12.3876 9.0335 13.4777 8.71879 14.3625 8.06478C14.8171 7.73988 15.4444 8.09545 15.4061 8.6529C15.2766 10.0537 14.7509 11.3886 13.8905 12.5015C13.03 13.6144 11.8704 14.4592 10.5473 14.9371C9.22426 15.415 7.79244 15.5063 6.41942 15.2001C5.04639 14.8939 3.78896 14.2031 2.79424 13.2084C1.79953 12.2137 1.10867 10.9562 0.802522 9.58321C0.496371 8.21018 0.587583 6.77837 1.06549 5.45529C1.54339 4.13221 2.38822 2.97261 3.50112 2.11215C4.61402 1.2517 5.94895 0.725995 7.34972 0.596545C7.60729 0.572743 7.85482 0.702463 7.98182 0.927808ZM13.8269 9.8539C12.9973 10.186 12.0969 10.328 11.1927 10.2605C9.78203 10.1553 8.45592 9.5473 7.45562 8.547C6.45532 7.5467 5.84728 6.22059 5.74208 4.80987C5.67465 3.9057 5.81666 3.00527 6.14872 2.17569C5.48548 2.39113 4.86091 2.71986 4.30393 3.1505C3.38825 3.85846 2.69314 4.81257 2.29993 5.90118C1.90671 6.98978 1.83167 8.16786 2.08356 9.29756C2.33546 10.4273 2.90388 11.4619 3.72232 12.2803C4.54076 13.0987 5.57536 13.6672 6.70506 13.9191C7.83476 14.171 9.01284 14.0959 10.1014 13.7027C11.1901 13.3095 12.1442 12.6144 12.8521 11.6987C13.2828 11.1417 13.6115 10.5171 13.8269 9.8539Z" fill="#E0E5EB"/>
</svg>
