<svg width="18" height="18" viewBox="0 0 18 18" fill="none" xmlns="http://www.w3.org/2000/svg">
<path fill-rule="evenodd" clip-rule="evenodd" d="M9 5.90625C7.29137 5.90625 5.90625 7.29137 5.90625 9C5.90625 10.7086 7.29137 12.0938 9 12.0938C10.7086 12.0938 12.0938 10.7086 12.0938 9C12.0938 7.29137 10.7086 5.90625 9 5.90625ZM4.59375 9C4.59375 6.5665 6.5665 4.59375 9 4.59375C11.4335 4.59375 13.4062 6.5665 13.4062 9C13.4062 11.4335 11.4335 13.4062 9 13.4062C6.5665 13.4062 4.59375 11.4335 4.59375 9Z" fill="#333D4C"/>
<path fill-rule="evenodd" clip-rule="evenodd" d="M9 0.09375C9.36244 0.09375 9.65625 0.387563 9.65625 0.75V2.25C9.65625 2.61244 9.36244 2.90625 9 2.90625C8.63756 2.90625 8.34375 2.61244 8.34375 2.25V0.75C8.34375 0.387563 8.63756 0.09375 9 0.09375Z" fill="#333D4C"/>
<path fill-rule="evenodd" clip-rule="evenodd" d="M9 15.0938C9.36244 15.0938 9.65625 15.3876 9.65625 15.75V17.25C9.65625 17.6124 9.36244 17.9062 9 17.9062C8.63756 17.9062 8.34375 17.6124 8.34375 17.25V15.75C8.34375 15.3876 8.63756 15.0938 9 15.0938Z" fill="#333D4C"/>
<path fill-rule="evenodd" clip-rule="evenodd" d="M2.70096 2.70096C2.95724 2.44468 3.37276 2.44468 3.62904 2.70096L4.69404 3.76596C4.95032 4.02224 4.95032 4.43776 4.69404 4.69404C4.43776 4.95032 4.02224 4.95032 3.76596 4.69404L2.70096 3.62904C2.44468 3.37276 2.44468 2.95724 2.70096 2.70096Z" fill="#333D4C"/>
<path fill-rule="evenodd" clip-rule="evenodd" d="M13.306 13.306C13.5622 13.0497 13.9778 13.0497 14.234 13.306L15.299 14.371C15.5553 14.6272 15.5553 15.0428 15.299 15.299C15.0428 15.5553 14.6272 15.5553 14.371 15.299L13.306 14.234C13.0497 13.9778 13.0497 13.5622 13.306 13.306Z" fill="#333D4C"/>
<path fill-rule="evenodd" clip-rule="evenodd" d="M0.09375 9C0.09375 8.63756 0.387563 8.34375 0.75 8.34375H2.25C2.61244 8.34375 2.90625 8.63756 2.90625 9C2.90625 9.36244 2.61244 9.65625 2.25 9.65625H0.75C0.387563 9.65625 0.09375 9.36244 0.09375 9Z" fill="#333D4C"/>
<path fill-rule="evenodd" clip-rule="evenodd" d="M15.0938 9C15.0938 8.63756 15.3876 8.34375 15.75 8.34375H17.25C17.6124 8.34375 17.9062 8.63756 17.9062 9C17.9062 9.36244 17.6124 9.65625 17.25 9.65625H15.75C15.3876 9.65625 15.0938 9.36244 15.0938 9Z" fill="#333D4C"/>
<path fill-rule="evenodd" clip-rule="evenodd" d="M4.69404 13.306C4.95032 13.5622 4.95032 13.9778 4.69404 14.234L3.62904 15.299C3.37276 15.5553 2.95724 15.5553 2.70096 15.299C2.44468 15.0428 2.44468 14.6272 2.70096 14.371L3.76596 13.306C4.02224 13.0497 4.43776 13.0497 4.69404 13.306Z" fill="#333D4C"/>
<path fill-rule="evenodd" clip-rule="evenodd" d="M15.299 2.70096C15.5553 2.95724 15.5553 3.37276 15.299 3.62904L14.234 4.69404C13.9778 4.95032 13.5622 4.95032 13.306 4.69404C13.0497 4.43776 13.0497 4.02224 13.306 3.76596L14.371 2.70096C14.6272 2.44468 15.0428 2.44468 15.299 2.70096Z" fill="#333D4C"/>
</svg>
